<svg width="68" height="68" viewBox="0 0 68 68" fill="none" xmlns="http://www.w3.org/2000/svg">
<g id="drop logo">
<path id="Vector" d="M34.6901 1.90738C34.5983 1.17638 33.3981 1.17638 33.3097 1.90738C30.3075 26.0712 14.9565 31.0522 14.9565 47.8482C14.9565 58.2284 23.6741 66.64 33.9999 66.64C44.3223 66.64 53.0399 58.225 53.0399 47.8482C53.0399 31.0522 37.6923 26.0712 34.6901 1.90738ZM31.7899 28.6212C31.5893 29.3658 31.3717 30.1308 31.1473 30.9264C29.7839 35.768 28.2369 41.259 28.2369 47.6068C28.2369 51.0476 26.2037 52.2682 24.3065 52.2682C23.7882 52.266 23.2753 52.1616 22.7972 51.9612C22.3192 51.7608 21.8852 51.4681 21.5203 51.1C21.1553 50.7319 20.8664 50.2955 20.6701 49.8157C20.4738 49.3359 20.3739 48.8222 20.3761 48.3038C20.3761 40.8 23.9869 35.8972 27.1761 31.5758C28.1791 30.2226 29.1209 28.9408 29.8859 27.6658C30.2361 27.081 31.1779 27.1082 31.6063 27.6862C31.8069 27.9582 31.8749 28.305 31.7899 28.6212Z" fill="#BD211D"/>
</g>
</svg>
